<svg width="18" height="19" viewBox="0 0 18 19" fill="none" xmlns="http://www.w3.org/2000/svg">
<path d="M2 18.2617C1.45 18.2617 0.979167 18.0659 0.5875 17.6742C0.195833 17.2826 0 16.8117 0 16.2617V2.26172C0 1.71172 0.195833 1.24089 0.5875 0.849219C0.979167 0.457552 1.45 0.261719 2 0.261719H16C16.55 0.261719 17.0208 0.457552 17.4125 0.849219C17.8042 1.24089 18 1.71172 18 2.26172V16.2617C18 16.8117 17.8042 17.2826 17.4125 17.6742C17.0208 18.0659 16.55 18.2617 16 18.2617H2ZM2 16.2617H16V2.26172H2V16.2617Z" fill="#3355FF"/>
</svg>
